<svg width="1098" height="210" viewBox="0 0 1098 210" fill="none" xmlns="http://www.w3.org/2000/svg">
<path d="M294.866 98.64C290.532 96.3867 286.459 94.6533 282.646 93.44C278.832 92.2267 275.452 91.62 272.506 91.62C270.599 91.62 268.996 92.01 267.696 92.79C266.482 93.4833 265.876 94.61 265.876 96.17C265.876 97.73 266.742 98.9867 268.476 99.94C270.296 100.807 272.592 101.673 275.366 102.54C278.226 103.32 281.216 104.187 284.336 105.14C287.456 106.093 290.402 107.393 293.176 109.04C296.036 110.6 298.332 112.723 300.066 115.41C301.799 118.01 302.666 121.347 302.666 125.42C302.666 130.187 301.366 134.26 298.766 137.64C296.252 141.02 292.742 143.577 288.236 145.31C283.816 147.043 278.702 147.91 272.896 147.91C267.002 147.91 261.326 147.087 255.866 145.44C250.406 143.793 245.509 141.323 241.176 138.03L248.456 123.34C252.529 126.113 256.732 128.28 261.066 129.84C265.399 131.313 269.516 132.05 273.416 132.05C274.889 132.05 276.146 131.877 277.186 131.53C278.312 131.183 279.179 130.707 279.786 130.1C280.479 129.407 280.826 128.54 280.826 127.5C280.826 125.853 279.959 124.553 278.226 123.6C276.492 122.56 274.239 121.693 271.466 121C268.692 120.22 265.746 119.353 262.626 118.4C259.506 117.447 256.559 116.19 253.786 114.63C251.099 112.983 248.889 110.86 247.156 108.26C245.422 105.66 244.556 102.323 244.556 98.25C244.556 93.3967 245.812 89.3233 248.326 86.03C250.926 82.65 254.349 80.0933 258.596 78.36C262.929 76.6267 267.869 75.76 273.416 75.76C278.529 75.76 283.599 76.4533 288.626 77.84C293.652 79.14 298.332 81.1333 302.666 83.82L294.866 98.64ZM336.154 114.63C336.154 118.617 337.151 121.78 339.144 124.12C341.224 126.46 343.997 127.63 347.464 127.63C351.624 127.543 354.831 125.983 357.084 122.95C359.424 119.917 360.594 116.103 360.594 111.51H366.054C366.054 119.397 364.927 126.07 362.674 131.53C360.421 136.903 357.214 140.977 353.054 143.75C348.894 146.523 343.911 147.91 338.104 147.91C333.077 147.91 328.657 146.827 324.844 144.66C321.117 142.407 318.214 139.287 316.134 135.3C314.054 131.313 313.014 126.59 313.014 121.13V76.8H336.154V114.63ZM360.594 76.8H383.734V147H360.594V76.8ZM447.182 96.69C442.589 96.17 438.559 96.56 435.092 97.86C431.712 99.16 429.069 101.153 427.162 103.84C425.342 106.44 424.432 109.603 424.432 113.33L418.972 112.29C418.972 104.663 420.099 98.12 422.352 92.66C424.692 87.2 427.985 83.04 432.232 80.18C436.479 77.2333 441.462 75.76 447.182 75.76V96.69ZM401.422 76.8H424.562V147H401.422V76.8ZM461.441 73.55C461.441 68.35 462.611 63.9733 464.951 60.42C467.378 56.8667 470.628 54.18 474.701 52.36C478.775 50.4533 483.368 49.5 488.481 49.5C490.995 49.5 493.508 49.76 496.021 50.28C498.621 50.7133 501.005 51.3633 503.171 52.23L500.181 69.52C498.881 69 497.538 68.5667 496.151 68.22C494.851 67.8733 493.595 67.7 492.381 67.7C490.821 67.7 489.435 67.96 488.221 68.48C487.095 69 486.185 69.8667 485.491 71.08C484.798 72.2067 484.451 73.5933 484.451 75.24V147H461.441V73.55ZM451.951 80.05H500.051V95.13H451.951V80.05ZM551.625 105.79C551.712 102.93 551.192 100.503 550.065 98.51C549.025 96.43 547.508 94.8267 545.515 93.7C543.522 92.5733 541.225 92.01 538.625 92.01C535.592 92.01 532.992 92.8333 530.825 94.48C528.745 96.04 527.098 98.25 525.885 101.11C524.758 103.883 524.195 107.133 524.195 110.86C524.195 114.933 524.888 118.443 526.275 121.39C527.662 124.337 529.612 126.633 532.125 128.28C534.725 129.84 537.715 130.62 541.095 130.62C547.335 130.62 552.838 128.237 557.605 123.47L569.695 135.43C566.142 139.33 561.765 142.363 556.565 144.53C551.452 146.697 545.602 147.78 539.015 147.78C531.388 147.78 524.758 146.307 519.125 143.36C513.578 140.413 509.288 136.253 506.255 130.88C503.308 125.507 501.835 119.267 501.835 112.16C501.835 104.88 503.352 98.5533 506.385 93.18C509.418 87.72 513.708 83.5167 519.255 80.57C524.802 77.5367 531.215 76.02 538.495 76.02C546.728 76.02 553.532 77.7533 558.905 81.22C564.365 84.6 568.352 89.4533 570.865 95.78C573.465 102.107 574.505 109.517 573.985 118.01H520.945V105.79H551.625ZM631.645 96.69C627.052 96.17 623.022 96.56 619.555 97.86C616.175 99.16 613.532 101.153 611.625 103.84C609.805 106.44 608.895 109.603 608.895 113.33L603.435 112.29C603.435 104.663 604.562 98.12 606.815 92.66C609.155 87.2 612.448 83.04 616.695 80.18C620.942 77.2333 625.925 75.76 631.645 75.76V96.69ZM585.885 76.8H609.025V147H585.885V76.8Z" fill="white"/>
<rect x="667" y="70" width="331" height="85" fill="#4A5036"/>
<circle cx="105" cy="105" r="105" fill="white" fill-opacity="0.5"/>
<circle cx="105" cy="105" r="70" fill="white" fill-opacity="0.7"/>
<path d="M714.947 132.7C712.101 132.7 709.581 132.07 707.387 130.81C705.241 129.503 703.561 127.753 702.347 125.56V146.91H692.967V95.32H701.157V101.62C702.557 99.4733 704.331 97.7933 706.477 96.58C708.624 95.32 711.074 94.69 713.827 94.69C716.301 94.69 718.564 95.18 720.617 96.16C722.717 97.14 724.537 98.5167 726.077 100.29C727.617 102.017 728.807 104.023 729.647 106.31C730.534 108.55 730.977 110.977 730.977 113.59C730.977 117.137 730.277 120.357 728.877 123.25C727.524 126.143 725.634 128.453 723.207 130.18C720.827 131.86 718.074 132.7 714.947 132.7ZM711.797 124.72C713.244 124.72 714.551 124.417 715.717 123.81C716.884 123.203 717.887 122.387 718.727 121.36C719.614 120.287 720.267 119.097 720.687 117.79C721.154 116.437 721.387 115.037 721.387 113.59C721.387 112.05 721.131 110.627 720.617 109.32C720.151 108.013 719.451 106.87 718.517 105.89C717.584 104.863 716.487 104.07 715.227 103.51C714.014 102.95 712.684 102.67 711.237 102.67C710.351 102.67 709.441 102.833 708.507 103.16C707.621 103.44 706.757 103.86 705.917 104.42C705.077 104.98 704.331 105.633 703.677 106.38C703.071 107.127 702.627 107.943 702.347 108.83V117.44C702.907 118.793 703.654 120.03 704.587 121.15C705.567 122.27 706.687 123.157 707.947 123.81C709.207 124.417 710.491 124.72 711.797 124.72ZM759.173 103.44C756.326 103.44 753.783 104 751.542 105.12C749.303 106.193 747.693 107.757 746.713 109.81V132H737.333V95.32H745.943V103.16C747.249 100.64 748.906 98.6567 750.913 97.21C752.919 95.7633 755.043 94.97 757.283 94.83C757.796 94.83 758.193 94.83 758.473 94.83C758.753 94.83 758.986 94.8533 759.173 94.9V103.44ZM780.864 132.7C777.878 132.7 775.194 132.21 772.814 131.23C770.434 130.203 768.404 128.803 766.724 127.03C765.091 125.257 763.831 123.227 762.944 120.94C762.058 118.653 761.614 116.25 761.614 113.73C761.614 111.163 762.058 108.737 762.944 106.45C763.831 104.163 765.091 102.133 766.724 100.36C768.404 98.5867 770.434 97.21 772.814 96.23C775.194 95.2033 777.878 94.69 780.864 94.69C783.851 94.69 786.511 95.2033 788.844 96.23C791.224 97.21 793.254 98.5867 794.934 100.36C796.614 102.133 797.874 104.163 798.714 106.45C799.601 108.737 800.044 111.163 800.044 113.73C800.044 116.25 799.601 118.653 798.714 120.94C797.874 123.227 796.614 125.257 794.934 127.03C793.301 128.803 791.294 130.203 788.914 131.23C786.534 132.21 783.851 132.7 780.864 132.7ZM771.274 113.73C771.274 115.877 771.694 117.79 772.534 119.47C773.374 121.103 774.518 122.387 775.964 123.32C777.411 124.253 779.044 124.72 780.864 124.72C782.638 124.72 784.248 124.253 785.694 123.32C787.141 122.34 788.284 121.033 789.124 119.4C790.011 117.72 790.454 115.807 790.454 113.66C790.454 111.56 790.011 109.67 789.124 107.99C788.284 106.31 787.141 105.003 785.694 104.07C784.248 103.137 782.638 102.67 780.864 102.67C779.044 102.67 777.411 103.16 775.964 104.14C774.518 105.073 773.374 106.38 772.534 108.06C771.694 109.693 771.274 111.583 771.274 113.73ZM827.809 130.11C827.015 130.437 826.059 130.81 824.939 131.23C823.819 131.65 822.605 131.977 821.299 132.21C820.039 132.49 818.755 132.63 817.449 132.63C815.722 132.63 814.135 132.327 812.689 131.72C811.242 131.113 810.075 130.157 809.189 128.85C808.349 127.497 807.929 125.747 807.929 123.6V102.53H803.099V95.32H807.929V83.42H817.309V95.32H825.009V102.53H817.309V120.45C817.355 121.71 817.705 122.62 818.359 123.18C819.012 123.74 819.829 124.02 820.809 124.02C821.789 124.02 822.745 123.857 823.679 123.53C824.612 123.203 825.359 122.923 825.919 122.69L827.809 130.11ZM849.224 132.7C846.237 132.7 843.554 132.21 841.174 131.23C838.794 130.203 836.764 128.803 835.084 127.03C833.45 125.257 832.19 123.227 831.304 120.94C830.417 118.653 829.974 116.25 829.974 113.73C829.974 111.163 830.417 108.737 831.304 106.45C832.19 104.163 833.45 102.133 835.084 100.36C836.764 98.5867 838.794 97.21 841.174 96.23C843.554 95.2033 846.237 94.69 849.224 94.69C852.21 94.69 854.87 95.2033 857.204 96.23C859.584 97.21 861.614 98.5867 863.294 100.36C864.974 102.133 866.234 104.163 867.074 106.45C867.96 108.737 868.404 111.163 868.404 113.73C868.404 116.25 867.96 118.653 867.074 120.94C866.234 123.227 864.974 125.257 863.294 127.03C861.66 128.803 859.654 130.203 857.274 131.23C854.894 132.21 852.21 132.7 849.224 132.7ZM839.634 113.73C839.634 115.877 840.054 117.79 840.894 119.47C841.734 121.103 842.877 122.387 844.324 123.32C845.77 124.253 847.404 124.72 849.224 124.72C850.997 124.72 852.607 124.253 854.054 123.32C855.5 122.34 856.644 121.033 857.484 119.4C858.37 117.72 858.814 115.807 858.814 113.66C858.814 111.56 858.37 109.67 857.484 107.99C856.644 106.31 855.5 105.003 854.054 104.07C852.607 103.137 850.997 102.67 849.224 102.67C847.404 102.67 845.77 103.16 844.324 104.14C842.877 105.073 841.734 106.38 840.894 108.06C840.054 109.693 839.634 111.583 839.634 113.73ZM891.815 132.7C888.828 132.7 886.145 132.21 883.765 131.23C881.385 130.203 879.355 128.803 877.675 127.03C875.995 125.21 874.688 123.157 873.755 120.87C872.868 118.583 872.425 116.18 872.425 113.66C872.425 110.207 873.195 107.057 874.735 104.21C876.322 101.317 878.562 99.0067 881.455 97.28C884.348 95.5533 887.778 94.69 891.745 94.69C895.712 94.69 899.118 95.5533 901.965 97.28C904.812 99.0067 906.935 101.27 908.335 104.07L899.165 106.87C898.372 105.517 897.322 104.49 896.015 103.79C894.708 103.043 893.262 102.67 891.675 102.67C889.902 102.67 888.268 103.137 886.775 104.07C885.328 104.957 884.185 106.24 883.345 107.92C882.505 109.553 882.085 111.467 882.085 113.66C882.085 115.807 882.505 117.72 883.345 119.4C884.232 121.033 885.398 122.34 886.845 123.32C888.292 124.253 889.902 124.72 891.675 124.72C892.795 124.72 893.845 124.533 894.825 124.16C895.852 123.787 896.762 123.273 897.555 122.62C898.348 121.967 898.932 121.22 899.305 120.38L908.475 123.18C907.635 125 906.398 126.633 904.765 128.08C903.178 129.527 901.288 130.67 899.095 131.51C896.948 132.303 894.522 132.7 891.815 132.7ZM930.845 132.7C927.858 132.7 925.175 132.21 922.795 131.23C920.415 130.203 918.385 128.803 916.705 127.03C915.071 125.257 913.811 123.227 912.925 120.94C912.038 118.653 911.595 116.25 911.595 113.73C911.595 111.163 912.038 108.737 912.925 106.45C913.811 104.163 915.071 102.133 916.705 100.36C918.385 98.5867 920.415 97.21 922.795 96.23C925.175 95.2033 927.858 94.69 930.845 94.69C933.831 94.69 936.491 95.2033 938.825 96.23C941.205 97.21 943.235 98.5867 944.915 100.36C946.595 102.133 947.855 104.163 948.695 106.45C949.581 108.737 950.025 111.163 950.025 113.73C950.025 116.25 949.581 118.653 948.695 120.94C947.855 123.227 946.595 125.257 944.915 127.03C943.281 128.803 941.275 130.203 938.895 131.23C936.515 132.21 933.831 132.7 930.845 132.7ZM921.255 113.73C921.255 115.877 921.675 117.79 922.515 119.47C923.355 121.103 924.498 122.387 925.945 123.32C927.391 124.253 929.025 124.72 930.845 124.72C932.618 124.72 934.228 124.253 935.675 123.32C937.121 122.34 938.265 121.033 939.105 119.4C939.991 117.72 940.435 115.807 940.435 113.66C940.435 111.56 939.991 109.67 939.105 107.99C938.265 106.31 937.121 105.003 935.675 104.07C934.228 103.137 932.618 102.67 930.845 102.67C929.025 102.67 927.391 103.16 925.945 104.14C924.498 105.073 923.355 106.38 922.515 108.06C921.675 109.693 921.255 111.583 921.255 113.73ZM956.286 80.9H965.666V120.24C965.666 121.92 965.946 123.063 966.506 123.67C967.066 124.23 967.836 124.51 968.816 124.51C969.563 124.51 970.333 124.417 971.126 124.23C971.919 124.043 972.619 123.81 973.226 123.53L974.486 130.67C973.226 131.277 971.756 131.743 970.076 132.07C968.396 132.397 966.879 132.56 965.526 132.56C962.586 132.56 960.299 131.79 958.666 130.25C957.079 128.663 956.286 126.423 956.286 123.53V80.9Z" fill="#F7EFD7" style="mix-blend-mode:hard-light"/>
</svg>
