<svg viewBox="0 0 2136 700" fill="none" xmlns="http://www.w3.org/2000/svg">
<circle cx="350" cy="350" r="240" fill="#E5FCFF" stroke="#669CAF" stroke-width="40"/>
<line x1="143" y1="209.5" x2="370" y2="209.5" stroke="#2D6790" stroke-width="29"/>
<line x1="147" y1="496.5" x2="371" y2="496.5" stroke="#2D6790" stroke-width="29"/>
<line x1="118.999" y1="421.766" x2="497" y2="421.766" stroke="#2D6790" stroke-width="29"/>
<line x1="118" y1="283.5" x2="500" y2="283.5" stroke="#2D6790" stroke-width="29"/>
<line x1="118" y1="351.5" x2="521" y2="351.5" stroke="#2D6790" stroke-width="29"/>
<circle cx="350" cy="350" r="240" fill="#00DDFF" fill-opacity="0.1" stroke="#669CAF" stroke-width="40"/>
<circle cx="368" cy="353" r="140.5" stroke="#1E4266" stroke-width="35"/>
<path d="M420.5 353C420.5 394.76 412.912 431.724 401.37 457.592C395.589 470.547 389.159 479.952 382.903 485.883C376.737 491.727 371.564 493.5 367.5 493.5C363.436 493.5 358.263 491.727 352.097 485.883C345.841 479.952 339.411 470.547 333.63 457.592C322.088 431.724 314.5 394.76 314.5 353C314.5 311.24 322.088 274.276 333.63 248.408C339.411 235.453 345.841 226.048 352.097 220.117C358.263 214.273 363.436 212.5 367.5 212.5C371.564 212.5 376.737 214.273 382.903 220.117C389.159 226.048 395.589 235.453 401.37 248.408C412.912 274.276 420.5 311.24 420.5 353Z" stroke="#1E4266" stroke-width="35"/>
<path d="M732.832 278.98C714.082 278.98 700.137 273.004 690.996 261.051C685.488 253.902 682.734 245.816 682.734 236.793C682.734 224.605 687.305 214.469 696.445 206.383C705.703 198.297 717.832 194.254 732.832 194.254H827.754L818.789 223.961H733.184C726.035 223.961 721.289 226.598 718.945 231.871C718.242 233.512 717.891 235.152 717.891 236.793C717.891 241.832 720.352 245.523 725.273 247.867C727.617 248.922 730.254 249.449 733.184 249.449H781.348C799.277 249.449 812.871 255.191 822.129 266.676C827.988 274.059 830.918 282.438 830.918 291.812C830.918 304 826.348 314.078 817.207 322.047C808.066 330.016 796.113 334 781.348 334H682.734L691.699 304.293H780.996C788.262 304.293 793.008 301.715 795.234 296.559C795.938 295.035 796.289 293.453 796.289 291.812C796.289 286.773 793.945 283.082 789.258 280.738C786.797 279.566 784.043 278.98 780.996 278.98H732.832ZM967.057 278.629V194.254H1000.28V278.629C1000.28 302.184 989.733 318.824 968.639 328.551C956.334 334.176 941.452 336.988 923.991 336.988C898.092 336.988 878.522 330.484 865.28 317.477C855.084 307.398 849.987 294.449 849.987 278.629V199.703L883.385 190.738V278.629C883.385 291.637 889.303 300.016 901.139 303.766C907.35 305.758 915.495 306.754 925.573 306.754C947.487 306.754 960.67 301.188 965.123 290.055C966.413 286.656 967.057 282.848 967.057 278.629ZM1026.38 244.527L1059.6 235.562V260.172C1059.6 260.172 1079.47 260.172 1119.19 260.172C1125.75 260.172 1130.33 256.891 1132.9 250.328C1133.96 247.633 1134.49 244.82 1134.49 241.891C1134.49 234.742 1132.08 229.527 1127.28 226.246C1124.82 224.723 1122.12 223.961 1119.19 223.961H1026.38L1035.34 194.254H1119.54C1136.77 194.254 1150.13 200.523 1159.62 213.062C1166.3 221.969 1169.64 232.105 1169.64 243.473C1169.64 257.066 1165.07 268.258 1155.93 277.047C1151.13 281.617 1145.5 284.957 1139.06 287.066L1173.68 334H1134.49L1104.08 289.879H1059.6V334H1026.38V244.527ZM1225.27 279.156V334H1192.05C1192.05 334 1192.05 287.418 1192.05 194.254C1192.05 194.254 1236.52 194.254 1325.47 194.254L1316.33 223.961H1225.27V249.449H1310.17V279.156H1225.27ZM1376.35 279.156V304.293H1478.31L1469.34 334H1343.13V194.254H1478.31L1469.34 223.961H1376.35V249.449H1463.01V279.156H1376.35ZM1501.77 244.527L1534.99 235.562V260.172C1534.99 260.172 1554.86 260.172 1594.58 260.172C1601.14 260.172 1605.71 256.891 1608.29 250.328C1609.35 247.633 1609.88 244.82 1609.88 241.891C1609.88 234.742 1607.47 229.527 1602.67 226.246C1600.21 224.723 1597.51 223.961 1594.58 223.961H1501.77L1510.73 194.254H1594.93C1612.16 194.254 1625.52 200.523 1635.01 213.062C1641.69 221.969 1645.03 232.105 1645.03 243.473C1645.03 257.066 1640.46 268.258 1631.32 277.047C1626.52 281.617 1620.89 284.957 1614.45 287.066L1649.07 334H1609.88L1579.46 289.879H1534.99V334H1501.77V244.527ZM688.535 419.527L721.758 410.562V435.172H786.797C793.359 435.172 797.93 431.891 800.508 425.328C801.562 422.633 802.09 419.82 802.09 416.891C802.09 409.742 799.688 404.527 794.883 401.246C792.422 399.723 789.727 398.961 786.797 398.961H688.535L697.5 369.254H785.391C803.32 369.254 817.207 375.582 827.051 388.238C833.848 397.145 837.246 407.223 837.246 418.473C837.246 432.301 832.383 443.551 822.656 452.223C813.164 460.66 800.742 464.879 785.391 464.879H721.758V509H688.535V419.527ZM855.26 419.527L888.483 410.562V435.172C888.483 435.172 908.346 435.172 948.073 435.172C954.635 435.172 959.205 431.891 961.784 425.328C962.838 422.633 963.366 419.82 963.366 416.891C963.366 409.742 960.963 404.527 956.159 401.246C953.698 399.723 951.002 398.961 948.073 398.961H855.26L864.225 369.254H948.424C965.651 369.254 979.01 375.523 988.502 388.062C995.182 396.969 998.522 407.105 998.522 418.473C998.522 432.066 993.952 443.258 984.811 452.047C980.006 456.617 974.381 459.957 967.936 462.066L1002.56 509H963.366L932.955 464.879H888.483V509H855.26V419.527ZM1045.72 439.215C1045.72 459.254 1053.04 472.086 1067.69 477.711C1074.6 480.406 1083.39 481.754 1094.06 481.754C1119.02 481.754 1134.08 473.199 1139.23 456.09C1140.64 451.051 1141.34 445.426 1141.34 439.215C1141.34 416.363 1131.5 402.711 1111.81 398.258C1106.54 397.086 1100.62 396.5 1094.06 396.5C1071.44 396.5 1056.85 402.945 1050.29 415.836C1047.24 422.047 1045.72 429.84 1045.72 439.215ZM1176.5 439.215C1176.5 466.637 1165.89 486.676 1144.68 499.332C1130.5 507.77 1113.04 511.988 1092.3 511.988C1066.87 511.988 1046.71 505.191 1031.83 491.598C1017.65 478.59 1010.56 461.129 1010.56 439.215C1010.56 413.316 1020.17 393.805 1039.39 380.68C1053.68 371.07 1071.32 366.266 1092.3 366.266C1119.95 366.266 1141.34 373.473 1156.46 387.887C1169.82 400.66 1176.5 417.77 1176.5 439.215ZM1185.37 398.961V369.254H1331.44L1322.48 398.961H1270.27V509H1236.87V398.961H1185.37ZM1375.12 439.215C1375.12 459.254 1382.45 472.086 1397.1 477.711C1404.01 480.406 1412.8 481.754 1423.46 481.754C1448.42 481.754 1463.48 473.199 1468.64 456.09C1470.04 451.051 1470.75 445.426 1470.75 439.215C1470.75 416.363 1460.9 402.711 1441.22 398.258C1435.94 397.086 1430.03 396.5 1423.46 396.5C1400.85 396.5 1386.26 402.945 1379.69 415.836C1376.65 422.047 1375.12 429.84 1375.12 439.215ZM1505.9 439.215C1505.9 466.637 1495.3 486.676 1474.09 499.332C1459.91 507.77 1442.45 511.988 1421.7 511.988C1396.28 511.988 1376.12 505.191 1361.24 491.598C1347.06 478.59 1339.97 461.129 1339.97 439.215C1339.97 413.316 1349.58 393.805 1368.79 380.68C1383.09 371.07 1400.73 366.266 1421.7 366.266C1449.36 366.266 1470.75 373.473 1485.86 387.887C1499.22 400.66 1505.9 417.77 1505.9 439.215ZM1574.72 369.254H1664.37L1655.4 398.961H1578.76C1568.68 398.961 1561.01 404.586 1555.73 415.836C1552.45 423.102 1550.81 431.188 1550.81 440.094C1550.81 453.922 1554.33 464.527 1561.36 471.91C1566.16 476.832 1571.96 479.293 1578.76 479.293H1664.37L1655.4 509H1574.72C1555.62 509 1540.56 501.031 1529.54 485.094C1520.29 471.852 1515.66 456.148 1515.66 437.984C1515.66 418.766 1520.75 402.711 1530.95 389.82C1541.85 376.227 1556.44 369.371 1574.72 369.254ZM1707.34 439.215C1707.34 459.254 1714.67 472.086 1729.31 477.711C1736.23 480.406 1745.02 481.754 1755.68 481.754C1780.64 481.754 1795.7 473.199 1800.86 456.09C1802.26 451.051 1802.97 445.426 1802.97 439.215C1802.97 416.363 1793.12 402.711 1773.44 398.258C1768.16 397.086 1762.24 396.5 1755.68 396.5C1733.06 396.5 1718.47 402.945 1711.91 415.836C1708.87 422.047 1707.34 429.84 1707.34 439.215ZM1838.12 439.215C1838.12 466.637 1827.52 486.676 1806.31 499.332C1792.13 507.77 1774.67 511.988 1753.92 511.988C1728.49 511.988 1708.34 505.191 1693.46 491.598C1679.28 478.59 1672.19 461.129 1672.19 439.215C1672.19 413.316 1681.8 393.805 1701.01 380.68C1715.31 371.07 1732.95 366.266 1753.92 366.266C1781.58 366.266 1802.97 373.473 1818.08 387.887C1831.44 400.66 1838.12 417.77 1838.12 439.215ZM1858.25 369.254H1891.47V479.293H1989.73L1980.77 509C1980.77 509 1939.93 509 1858.25 509C1858.25 509 1858.25 462.418 1858.25 369.254Z" fill="white"/>
</svg>
