<svg width="4256" height="700" viewBox="0 0 4256 700" fill="none" xmlns="http://www.w3.org/2000/svg">
<circle cx="350" cy="350" r="240" fill="#E5FCFF" stroke="#669CAF" stroke-width="40"/>
<circle cx="350" cy="350" r="240" fill="#E5FCFF" stroke="#669CAF" stroke-width="40"/>
<line x1="143" y1="209.5" x2="370" y2="209.5" stroke="#2D6790" stroke-width="29"/>
<line x1="147" y1="496.5" x2="371" y2="496.5" stroke="#2D6790" stroke-width="29"/>
<line x1="118.999" y1="421.766" x2="497" y2="421.766" stroke="#2D6790" stroke-width="29"/>
<line x1="118" y1="283.5" x2="500" y2="283.5" stroke="#2D6790" stroke-width="29"/>
<line x1="118" y1="351.5" x2="521" y2="351.5" stroke="#2D6790" stroke-width="29"/>
<circle cx="350" cy="350" r="240" fill="#00DDFF" fill-opacity="0.1" stroke="#669CAF" stroke-width="40"/>
<circle cx="368" cy="353" r="140.5" stroke="#1E4266" stroke-width="35"/>
<path d="M420.5 353C420.5 394.76 412.912 431.724 401.37 457.592C395.589 470.547 389.159 479.952 382.903 485.883C376.737 491.727 371.564 493.5 367.5 493.5C363.436 493.5 358.263 491.727 352.097 485.883C345.841 479.952 339.411 470.547 333.63 457.592C322.088 431.724 314.5 394.76 314.5 353C314.5 311.24 322.088 274.276 333.63 248.408C339.411 235.453 345.841 226.048 352.097 220.117C358.263 214.273 363.436 212.5 367.5 212.5C371.564 212.5 376.737 214.273 382.903 220.117C389.159 226.048 395.589 235.453 401.37 248.408C412.912 274.276 420.5 311.24 420.5 353Z" stroke="#1E4266" stroke-width="35"/>
<circle cx="350" cy="350" r="240" fill="#E5FCFF" stroke="#669CAF" stroke-width="40"/>
<circle cx="350" cy="350" r="240" fill="#E5FCFF" stroke="#669CAF" stroke-width="40"/>
<line x1="143" y1="209.5" x2="370" y2="209.5" stroke="#2D6790" stroke-width="29"/>
<line x1="147" y1="496.5" x2="371" y2="496.5" stroke="#2D6790" stroke-width="29"/>
<line x1="118.999" y1="421.766" x2="497" y2="421.766" stroke="#2D6790" stroke-width="29"/>
<line x1="118" y1="283.5" x2="500" y2="283.5" stroke="#2D6790" stroke-width="29"/>
<line x1="118" y1="351.5" x2="521" y2="351.5" stroke="#2D6790" stroke-width="29"/>
<circle cx="350" cy="350" r="240" fill="#00DDFF" fill-opacity="0.1" stroke="#669CAF" stroke-width="40"/>
<circle cx="368" cy="353" r="140.5" stroke="#1E4266" stroke-width="35"/>
<path d="M420.5 353C420.5 394.76 412.912 431.724 401.37 457.592C395.589 470.547 389.159 479.952 382.903 485.883C376.737 491.727 371.564 493.5 367.5 493.5C363.436 493.5 358.263 491.727 352.097 485.883C345.841 479.952 339.411 470.547 333.63 457.592C322.088 431.724 314.5 394.76 314.5 353C314.5 311.24 322.088 274.276 333.63 248.408C339.411 235.453 345.841 226.048 352.097 220.117C358.263 214.273 363.436 212.5 367.5 212.5C371.564 212.5 376.737 214.273 382.903 220.117C389.159 226.048 395.589 235.453 401.37 248.408C412.912 274.276 420.5 311.24 420.5 353Z" stroke="#1E4266" stroke-width="35"/>
<path d="M970.773 406.602C908.273 406.602 861.789 386.68 831.32 346.836C812.961 323.008 803.781 296.055 803.781 265.977C803.781 225.352 819.016 191.562 849.484 164.609C880.344 137.656 920.773 124.18 970.773 124.18H1287.18L1257.3 223.203H971.945C948.117 223.203 932.297 231.992 924.484 249.57C922.141 255.039 920.969 260.508 920.969 265.977C920.969 282.773 929.172 295.078 945.578 302.891C953.391 306.406 962.18 308.164 971.945 308.164H1132.49C1192.26 308.164 1237.57 327.305 1268.43 365.586C1287.96 390.195 1297.73 418.125 1297.73 449.375C1297.73 490 1282.49 523.594 1252.02 550.156C1221.55 576.719 1181.71 590 1132.49 590H803.781L833.664 490.977H1131.32C1155.54 490.977 1171.36 482.383 1178.78 465.195C1181.12 460.117 1182.3 454.844 1182.3 449.375C1182.3 432.578 1174.48 420.273 1158.86 412.461C1150.66 408.555 1141.48 406.602 1131.32 406.602H970.773ZM1751.52 405.43V124.18H1862.27V405.43C1862.27 483.945 1827.11 539.414 1756.8 571.836C1715.78 590.586 1666.17 599.961 1607.97 599.961C1521.64 599.961 1456.41 578.281 1412.27 534.922C1378.28 501.328 1361.29 458.164 1361.29 405.43V142.344L1472.62 112.461V405.43C1472.62 448.789 1492.34 476.719 1531.8 489.219C1552.5 495.859 1579.65 499.18 1613.24 499.18C1686.29 499.18 1730.23 480.625 1745.08 443.516C1749.38 432.188 1751.52 419.492 1751.52 405.43ZM1949.27 291.758L2060.01 261.875V343.906C2060.01 343.906 2126.22 343.906 2258.64 343.906C2280.52 343.906 2295.75 332.969 2304.34 311.094C2307.86 302.109 2309.62 292.734 2309.62 282.969C2309.62 259.141 2301.61 241.758 2285.59 230.82C2277.39 225.742 2268.41 223.203 2258.64 223.203H1949.27L1979.15 124.18H2259.81C2317.23 124.18 2361.77 145.078 2393.41 186.875C2415.67 216.562 2426.8 250.352 2426.8 288.242C2426.8 333.555 2411.57 370.859 2381.1 400.156C2365.09 415.391 2346.34 426.523 2324.85 433.555L2440.28 590H2309.62L2208.25 442.93H2060.01V590H1949.27V291.758ZM2612.24 407.188V590H2501.5C2501.5 590 2501.5 434.727 2501.5 124.18C2501.5 124.18 2649.74 124.18 2946.23 124.18L2915.76 223.203H2612.24V308.164H2895.25V407.188H2612.24ZM3115.84 407.188V490.977H3455.69L3425.8 590H3005.1V124.18H3455.69L3425.8 223.203H3115.84V308.164H3404.71V407.188H3115.84ZM3533.9 291.758L3644.64 261.875V343.906C3644.64 343.906 3710.85 343.906 3843.27 343.906C3865.15 343.906 3880.38 332.969 3888.98 311.094C3892.49 302.109 3894.25 292.734 3894.25 282.969C3894.25 259.141 3886.24 241.758 3870.23 230.82C3862.02 225.742 3853.04 223.203 3843.27 223.203H3533.9L3563.78 124.18H3844.45C3901.87 124.18 3946.4 145.078 3978.04 186.875C4000.3 216.562 4011.44 250.352 4011.44 288.242C4011.44 333.555 3996.2 370.859 3965.73 400.156C3949.72 415.391 3930.97 426.523 3909.48 433.555L4024.91 590H3894.25L3792.88 442.93H3644.64V590H3533.9V291.758Z" fill="white"/>
</svg>
